<?xml version="1.0" encoding="UTF-8"?>
<!-- MOIF product mark (Style-Color), wordmark removed — icon use only. -->
<svg xmlns="http://www.w3.org/2000/svg" xmlns:xlink="http://www.w3.org/1999/xlink" viewBox="0 0 1080 1080">
  <defs>
    <style>
      .cls-1 { fill: url(#linear-gradient-2); }
      .cls-2 { fill: url(#linear-gradient-4); }
      .cls-3 { fill: url(#linear-gradient-3); }
      .cls-4 { fill: url(#linear-gradient); }
    </style>
    <linearGradient id="linear-gradient" x1="403.43" y1="467.74" x2="432.83" y2="426.8" gradientUnits="userSpaceOnUse">
      <stop offset="0" stop-color="#ad1245"/>
      <stop offset="1" stop-color="#870c35"/>
    </linearGradient>
    <linearGradient id="linear-gradient-2" x1="540.72" y1="476.86" x2="540.72" y2="321.36" xlink:href="#linear-gradient"/>
    <linearGradient id="linear-gradient-3" x1="642.66" y1="522.48" x2="678.88" y2="485.74" xlink:href="#linear-gradient"/>
    <linearGradient id="linear-gradient-4" x1="414.9" y1="437.75" x2="622.15" y2="643.41" xlink:href="#linear-gradient"/>
  </defs>
  <g>
    <path class="cls-4" d="M511.39,426.33c-2.95,1.92-5.76,4.02-8.43,6.27-.28.2-.51.42-.77.64-2.97,2.59-5.76,5.37-8.36,8.34-1.39,1.63-2.75,3.28-4.03,5.02-.99,1.26-2.02,2.49-3.1,3.68-4.58,4.99-10.07,9.15-16.21,12.19-7.37,3.68-15.71,5.74-24.51,5.74-.22,0-.46,0-.7-.02-19.67-.24-36.87-10.76-46.44-26.48-3.91-6.42-5.83-13.86-5.83-21.38v-35.62c0-4.62.5-9.13,1.45-13.46,6.33,37.18,38.7,65.49,77.7,65.49,14.3,0,27.69-3.79,39.24-10.43Z"/>
    <path class="cls-1" d="M686.99,384.73v92.13c-8.38-35.59-39.69-62.34-77.48-63.77-1.06-.05-2.13-.07-3.21-.07-.9,0-1.78.02-2.64.04-.13,0-.24,0-.35.02-.02-.02-.02-.04-.02-.06h-46.83c-5.65,0-11.15.57-16.46,1.63-8.97,1.82-17.42,5.06-25.08,9.53-1.17.68-2.35,1.39-3.48,2.13,0,0-.02,0-.04.02-11.55,6.64-24.93,10.43-39.24,10.43-39,0-71.38-28.31-77.7-65.49,6.16-28.55,31.54-49.91,61.92-49.91h167.25c35,0,63.36,28.36,63.36,63.36Z"/>
    <path class="cls-3" d="M686.99,516.32v35.66c0,4.49-.48,8.89-1.36,13.11-6.14-37.44-38.63-65.99-77.79-65.99-12.38,0-24.07,2.84-34.49,7.94,1.25-.95,2.49-1.94,3.69-2.95.28-.2.51-.42.77-.64,2.97-2.59,5.76-5.37,8.36-8.34,1.39-1.61,2.75-3.28,4.03-5.01.99-1.28,2.02-2.51,3.1-3.68,4.58-5.01,10.07-9.17,16.21-12.21,7.37-3.67,15.71-5.74,24.51-5.74.22,0,.46,0,.7.02,19.67.22,36.87,10.76,46.42,26.46,3.92,6.42,5.85,13.86,5.85,21.38Z"/>
    <path class="cls-2" d="M685.63,565.09c-6.05,28.69-31.5,50.25-62.01,50.25h-167.25c-35,0-63.36-28.38-63.36-63.36v-92.17c8.36,35.61,39.69,62.36,77.48,63.79,1.06.06,2.13.07,3.21.07.9,0,1.78-.02,2.64-.04.13,0,.24,0,.35-.02.02.02.02.04.02.05h46.83c3.76,0,7.44-.26,11.06-.73,1.82-.24,3.63-.55,5.41-.9,7.08-1.43,13.82-3.76,20.13-6.86,4.68-2.31,9.09-5.04,13.22-8.14,10.41-5.1,22.11-7.94,34.49-7.94,39.16,0,71.65,28.55,77.79,65.99Z"/>
  </g>
</svg>
